<svg width="20" height="20" viewBox="0 0 29 30" fill="none" xmlns="http://www.w3.org/2000/svg">
<path d="M7.34357 26.3255C7.02375 26.3255 6.71703 26.1938 6.49089 25.9594C6.26474 25.725 6.1377 25.407 6.1377 25.0755L5.95682 6.75049C5.9423 6.37842 5.99888 6.00705 6.12332 5.65773C6.24775 5.30841 6.43758 4.98804 6.68189 4.71504C6.9262 4.44204 7.22016 4.22181 7.54687 4.067C7.87359 3.91219 8.2266 3.82587 8.58561 3.81299L20.1499 3.75049C20.5094 3.757 20.8641 3.83685 21.1938 3.9855C21.5235 4.13414 21.8218 4.34866 22.0715 4.6168C22.3212 4.88494 22.5175 5.20145 22.6492 5.54825C22.7809 5.89505 22.8454 6.26535 22.839 6.63799L23.0078 24.963C23.0099 25.182 22.9564 25.3978 22.8527 25.5887C22.749 25.7795 22.5987 25.9388 22.4169 26.0505C22.2336 26.1602 22.0257 26.218 21.814 26.218C21.6023 26.218 21.3944 26.1602 21.2111 26.0505L14.3376 22.1005L7.95856 26.138C7.76966 26.2474 7.55951 26.3114 7.34357 26.3255ZM14.2894 19.388C14.4989 19.3884 14.7054 19.4398 14.8923 19.538L20.572 22.8005L20.4273 6.61299C20.4273 6.36299 20.2705 6.18799 20.174 6.20049L8.59767 6.31299C8.5012 6.31299 8.36856 6.47549 8.36856 6.72549L8.51326 22.8505L13.6744 19.563C13.8618 19.4517 14.0734 19.3915 14.2894 19.388Z" fill="#FE5C17"/>
</svg>
