<?xml version="1.0" standalone="no"?>
<!DOCTYPE svg PUBLIC "-//W3C//DTD SVG 20010904//EN"
 "http://www.w3.org/TR/2001/REC-SVG-20010904/DTD/svg10.dtd">
<svg version="1.0" xmlns="http://www.w3.org/2000/svg"
 width="15" height="15"  viewBox="0 0 970.000000 1280.000000"
 preserveAspectRatio="xMidYMid meet">
<metadata>
Created by potrace 1.15, written by Peter Selinger 2001-2017
</metadata>
<g transform="translate(0.000000,1280.000000) scale(0.100000,-0.100000)"
fill="#FE5C17" stroke="none">
<path d="M3566 12738 c8 -35 38 -166 68 -293 29 -126 50 -233 47 -237 -5 -6
-203 -71 -843 -276 -115 -37 -208 -70 -208 -74 0 -3 149 -363 331 -800 183
-436 345 -830 360 -876 66 -191 87 -408 55 -575 -19 -97 -71 -236 -126 -332
-44 -75 -162 -238 -307 -420 -158 -199 -647 -915 -923 -1350 -770 -1215 -1376
-2410 -1705 -3365 -251 -726 -343 -1282 -306 -1835 66 -958 409 -1548 1102
-1895 351 -176 804 -289 1410 -350 490 -49 701 -54 2304 -55 1687 0 1945 7
2500 71 1208 138 1886 555 2190 1349 191 499 236 1171 119 1803 -121 660 -417
1455 -895 2412 -567 1132 -1306 2317 -2143 3435 -145 195 -200 287 -241 409
-70 212 -59 476 29 719 19 50 107 265 196 477 379 906 493 1181 489 1184 -2 2
-233 108 -514 236 -280 127 -511 233 -512 234 -2 1 66 304 96 429 l9 37 -1298
0 -1298 0 14 -62z m1954 -3083 l0 -415 -660 0 -660 0 0 415 0 415 660 0 660 0
0 -415z m-490 -2450 l0 -245 24 0 c73 0 315 -54 461 -102 540 -180 877 -602
931 -1165 l7 -73 -452 0 -451 0 0 43 c0 24 -9 78 -20 121 -59 232 -247 418
-437 434 l-63 5 2 -558 3 -558 190 -49 c530 -136 802 -272 1050 -522 139 -141
237 -304 284 -476 29 -102 54 -378 48 -515 -10 -219 -101 -471 -235 -650 -169
-226 -469 -442 -748 -538 -160 -56 -367 -96 -554 -110 l-35 -2 -3 -267 -2
-268 -185 0 -185 0 -2 267 -3 268 -85 7 c-579 51 -1040 331 -1269 769 -95 182
-154 376 -191 631 -11 73 -20 139 -20 146 0 9 95 12 443 12 l443 0 11 -118
c27 -283 155 -479 403 -620 55 -31 224 -92 254 -92 15 0 16 61 16 659 l0 659
-47 16 c-27 8 -95 27 -153 41 -147 36 -476 148 -589 201 -353 165 -583 436
-652 769 -54 260 -27 570 71 797 200 464 647 759 1260 831 l105 12 3 243 2
242 185 0 185 0 0 -245z"/>
<path d="M4480 6201 c-192 -52 -335 -190 -374 -361 -42 -181 -4 -345 103 -449
72 -70 271 -159 414 -186 l37 -7 0 511 0 511 -57 -1 c-32 0 -87 -8 -123 -18z"/>
<path d="M5030 3586 l0 -606 24 0 c53 0 227 52 311 94 150 74 272 205 320 342
23 64 31 232 16 306 -46 218 -199 327 -648 463 l-23 6 0 -605z"/>
</g>
</svg>
